Coordinates
version=1
nRows=17
nColumns=24
inDegrees=yes

Units are S.I. units (second, meters, Newtons, ...)
Angles are in degrees.

endheader
time	pelvis_tilt	pelvis_list	pelvis_rotation	pelvis_tx	pelvis_ty	pelvis_tz	hip_flexion_r	hip_adduction_r	hip_rotation_r	knee_angle_r	ankle_angle_r	subtalar_angle_r	mtp_angle_r	hip_flexion_l	hip_adduction_l	hip_rotation_l	knee_angle_l	ankle_angle_l	subtalar_angle_l	mtp_angle_l	lumbar_extension	lumbar_bending	lumbar_rotation
      2.28000000	     16.42459165	     -3.44269145	      5.69210007	      0.93358390	      0.91791508	      0.31669650	     11.65893182	      6.87999114	     -2.55526188	    -31.49847537	     15.23626202	     -1.59328928	     30.22153105	    -21.22560792	     -7.32462875	     -4.42097412	    -49.40565717	     12.06444566	     10.44708178	     57.59786132	    -27.48931594	      7.95397926	     -1.78601514
      2.28500000	     15.99786956	     -3.82332554	      6.01319904	      0.93919572	      0.91774662	      0.31668724	     11.77877478	      7.33946496	     -2.65220941	    -31.46635725	     15.63573950	     -1.76685325	     28.70952878	    -19.49813963	     -7.84433599	     -3.77086345	    -51.70766592	     11.56974704	      9.98536064	     53.74822592	    -27.02826297	      8.51565855	     -1.76956855
      2.29000000	     15.75516328	     -4.27677048	      6.36761307	      0.94475958	      0.91786192	      0.31666484	     11.62867052	      7.89705300	     -2.75458301	    -31.26197237	     15.90407679	     -2.08788867	     27.84594546	    -18.01287602	     -8.42590705	     -3.07366061	    -53.84089389	     11.46838258	      9.40910068	     50.95548028	    -26.74850009	      9.17068880	     -1.73611130
      2.29500000	     15.38648515	     -4.59891768	      6.64667425	      0.95028747	      0.91784753	      0.31652404	     11.70011412	      8.26898390	     -2.85623015	    -31.25410782	     16.06552630	     -2.29086273	     27.48343590	    -16.40380718	     -8.75791855	     -2.36088124	    -55.89365794	     11.77259044	      8.61329981	     50.58846745	    -26.35705543	      9.66437395	     -1.67998008
      2.30000000	     15.12741158	     -4.88364066	      6.96787817	      0.95568339	      0.91810854	      0.31631217	     11.60437822	      8.59885895	     -3.01048827	    -31.13914174	     16.31627574	     -2.40884906	     27.18315237	    -14.90473737	     -9.02005698	     -1.59850769	    -57.83281500	     12.22111549	      7.88232279	     50.31329611	    -26.08106732	     10.14474855	     -1.74259470
      2.30500000	     14.89559701	     -5.12717730	      7.20415630	      0.96110492	      0.91850661	      0.31609442	     11.45347665	      8.86502595	     -3.15095448	    -31.01748570	     16.76611460	     -2.14233271	     25.90784601	    -13.49211930	     -9.18490297	     -0.97296946	    -59.61175243	     12.73232167	      7.22637948	     49.15134675	    -25.84275773	     10.54888325	     -1.60096272
      2.31000000	     14.79938824	     -5.37083810	      7.48030396	      0.96659358	      0.91925339	      0.31584940	     11.09426818	      9.14425921	     -3.35681966	    -30.77489733	     17.05256690	     -2.06658591	     25.85054157	    -12.26912078	     -9.37376870	     -0.37131058	    -61.19554325	     13.03364333	      6.43406180	     49.08125614	    -25.74487775	     10.99069665	     -1.53851575
      2.31500000	     14.65263671	     -5.54703116	      7.72194029	      0.97205843	      0.91998546	      0.31580320	     10.79169983	      9.35899986	     -3.54223006	    -30.54782020	     17.32728681	     -2.03795784	     25.71853596	    -10.96312716	     -9.50610955	      0.13316185	    -62.74786349	     13.21301477	      5.47299376	     48.92200555	    -25.60137311	     11.31655470	     -1.51951014
      2.32000000	     14.58056725	     -5.69481555	      7.92392042	      0.97742698	      0.92088234	      0.31578160	     10.38305311	      9.55198223	     -3.71021937	    -30.27937940	     17.56667062	     -1.98573937	     25.54167717	     -9.75133581	     -9.62445584	      0.53539151	    -64.15399314	     13.35643126	      4.42915699	     48.67337124	    -25.55400999	     11.60592775	     -1.53539655
      2.32500000	     14.60908972	     -5.84121313	      8.07410249	      0.98283727	      0.92202305	      0.31578769	      9.82317953	      9.76260878	     -3.82712332	    -29.93491340	     17.76049851	     -1.85878319	     25.45150405	     -8.68761508	     -9.78305293	      0.80225101	    -65.42302971	     13.53794371	      3.64522834	     48.55725983	    -25.62854026	     11.86818156	     -1.40935125
      2.33000000	     14.45234458	     -5.89712108	      8.27421239	      0.98817632	      0.92288076	      0.31585628	      9.49741840	      9.86150636	     -3.93572860	    -29.66549636	     18.03193920	     -1.87966517	     25.08716636	     -7.35266351	     -9.83599408	      1.16992176	    -66.70051141	     13.71728495	      2.98224951	     48.20191654	    -25.48540161	     12.04129064	     -1.53414307
      2.33500000	     14.32415906	     -5.97185483	      8.41600266	      0.99345638	      0.92376008	      0.31595396	      9.12569988	      9.98631432	     -3.98714237	    -29.38447302	     18.33219752	     -1.60626783	     23.08213066	     -6.06469663	     -9.89507103	      1.43451620	    -67.89557648	     13.91086754	      2.43239114	     47.07340197	    -25.39096651	     12.20500658	     -1.50155001
      2.34000000	     14.24249277	     -6.02766149	      8.57361567	      0.99871389	      0.92480103	      0.31604516	      8.65357487	     10.10547918	     -4.05382497	    -28.98176908	     18.50154277	     -1.48948354	     23.02795044	     -4.84702867	     -9.93746899	      1.70983230	    -68.96512073	     14.09782653	      2.03709156	     47.07679628	    -25.35698160	     12.36594030	     -1.51871470
      2.34500000	     14.09290642	     -6.06064723	      8.68055905	      1.00398059	      0.92569492	      0.31614526	      8.27524519	     10.17652453	     -4.13997096	    -28.63820360	     18.81926885	     -1.31474579	     22.95822876	     -3.57133307	     -9.89925196	      1.96414469	    -69.98640970	     14.35167877	      1.50845611	     46.98757231	    -25.25084594	     12.46273884	     -1.51211325
      2.35000000	     14.02848098	     -6.07969092	      8.73575060	      1.00927554	      0.92671332	      0.31632241	      7.80866104	     10.25848905	     -4.21605846	    -28.31620229	     19.08585809	     -1.20053008	     22.90451766	     -2.43771175	     -9.83037791	      2.17729909	    -70.85219555	     14.53903941	      0.98034536	     46.83621492	    -25.24319382	     12.51858647	     -1.41987587
      2.35500000	     13.98388590	     -6.19551309	      8.74722423	      1.01464788	      0.92781881	      0.31662452	      7.17092189	     10.49194177	     -4.05534886	    -27.67086265	     19.23425129	     -1.25955124	     22.81343468	     -1.37273665	     -9.91138988	      2.29553444	    -71.54472895	     14.97001224	      0.82583721	     46.69713673	    -25.25750907	     12.66498583	     -1.30404183
      2.36000000	     14.13369414	     -6.48787226	      8.85766637	      1.02018846	      0.92931583	      0.31715536	      6.03163706	     11.01405561	     -3.67681310	    -26.38847609	     19.12025223	     -1.58866099	     22.71107205	     -0.49956147	    -10.29545393	      2.40625223	    -72.15433374	     15.33159904	      0.72034488	     46.51513799	    -25.43162935	     13.01059288	     -1.20422661
